<?xml version="1.0" encoding="UTF-8" standalone="no"?>
<svg
   version="1.1"
   id="Layer_1"
   x="0px"
   y="0px"
   viewBox="0 0 1088 680.00001"
   xml:space="preserve"
   sodipodi:docname="feat_command_line.svg"
   width="1088"
   height="680"
   inkscape:version="1.3.2 (091e20e, 2023-11-25)"
   xmlns:inkscape="http://www.inkscape.org/namespaces/inkscape"
   xmlns:sodipodi="http://sodipodi.sourceforge.net/DTD/sodipodi-0.dtd"
   xmlns="http://www.w3.org/2000/svg"
   xmlns:svg="http://www.w3.org/2000/svg"><defs
     id="defs1" /><sodipodi:namedview
     id="namedview1"
     pagecolor="#ffffff"
     bordercolor="#000000"
     borderopacity="0.25"
     inkscape:showpageshadow="2"
     inkscape:pageopacity="0.0"
     inkscape:pagecheckerboard="0"
     inkscape:deskcolor="#d1d1d1"
     inkscape:zoom="0.76406008"
     inkscape:cx="660.94279"
     inkscape:cy="301.67785"
     inkscape:window-width="1856"
     inkscape:window-height="896"
     inkscape:window-x="486"
     inkscape:window-y="41"
     inkscape:window-maximized="0"
     inkscape:current-layer="Layer_1" /><style
     type="text/css"
     id="style1">.st0{fill-rule:evenodd;clip-rule:evenodd;}</style><rect
     style="fill:#f2f2f2;fill-opacity:1;stroke:#ffffff;stroke-width:1.75999"
     id="rect1"
     width="698.23999"
     height="588.23999"
     x="194.88"
     y="45.880005"
     ry="36.216976" /><g
     id="g1"
     transform="matrix(5.7959815,0,0,5.7959815,291.88518,45.997751)"
     style="fill:#3f3d56;fill-opacity:1"><path
       class="st0"
       d="m -12.466789,-1.0348147 h 111.93 c 3.009999,0 5.469999,2.46 5.469999,5.47 V 97.015185 c 0,3.010005 -2.46,5.470005 -5.469999,5.470005 h -111.93 c -3.01,0 -5.47,-2.46 -5.47,-5.470005 V 4.4351853 c 0,-3.01 2.46,-5.47 5.47,-5.47 z m 26.37,38.5499997 17.79,18.42 2.14,2.13 -2.12,2.16 -17.97,19.05 -5.0699996,-5 15.8499996,-16.15 -15.6499996,-15.56 z m 62.26,40.86 h -39.41 v -6.84 h 39.41 z m -55.91,-69.5799997 c 3.19,0 5.78,2.5899997 5.78,5.7799997 0,3.19 -2.59,5.78 -5.78,5.78 -3.19,0 -5.78,-2.59 -5.78,-5.78 0,-3.19 2.59,-5.7799997 5.78,-5.7799997 z m -19.2399996,0 c 3.19,0 5.78,2.5899997 5.78,5.7799997 0,3.19 -2.59,5.78 -5.78,5.78 -3.19,0 -5.78,-2.59 -5.78,-5.78 0,-3.19 2.58,-5.7799997 5.78,-5.7799997 z m -11.4600004,-4.42 h 107.91 c 1.15,0 2.09,0.94 2.09,2.09 V 24.785185 h -112.09 V 6.4651853 c 0,-1.15 0.94,-2.09 2.09,-2.09 z"
       id="path1"
       style="fill:#3f3d56;fill-opacity:1" /></g></svg>
